<?xml version="1.0" standalone="no"?>
<!DOCTYPE svg PUBLIC "-//W3C//DTD SVG 20010904//EN"
 "http://www.w3.org/TR/2001/REC-SVG-20010904/DTD/svg10.dtd">
<svg version="1.0" xmlns="http://www.w3.org/2000/svg"
 width="668.000000pt" height="668.000000pt" viewBox="0 0 668.000000 668.000000"
 preserveAspectRatio="xMidYMid meet">
<metadata>
Created by potrace 1.14, written by Peter Selinger 2001-2017
</metadata>
<g transform="translate(0.000000,668.000000) scale(0.100000,-0.100000)"
fill="#000000" stroke="none">
<path d="M4760 5230 c-329 -23 -611 -91 -1090 -267 -209 -76 -318 -106 -465
-129 -217 -33 -335 -9 -545 109 l-95 54 -3 -47 c-8 -124 61 -303 148 -384 28
-27 48 -51 45 -54 -4 -4 -73 -7 -153 -6 -141 0 -151 2 -242 34 -90 32 -103 34
-230 34 -99 1 -152 -4 -200 -17 -77 -21 -191 -73 -257 -118 -52 -35 -203 -178
-233 -219 -17 -24 -15 -24 55 11 102 52 206 73 314 66 247 -16 471 -171 471
-327 0 -111 -105 -182 -270 -183 -89 0 -91 0 -290 80 -93 37 -98 38 -225 38
-121 0 -137 -3 -225 -33 -52 -18 -205 -86 -340 -152 -285 -137 -395 -179 -695
-265 l-220 -63 67 -31 c161 -74 321 -105 533 -106 227 0 380 32 545 115 100
50 179 66 261 51 94 -16 200 -71 265 -135 161 -162 109 -302 -130 -353 -42 -9
-164 -18 -296 -22 -199 -7 -232 -10 -283 -30 -94 -37 -197 -113 -308 -228
l-104 -108 120 -12 c200 -21 299 -46 540 -138 84 -32 199 -43 276 -26 30 7
158 64 284 127 264 131 342 155 443 135 129 -26 197 -107 197 -236 0 -44 -7
-88 -18 -117 -52 -133 -251 -212 -604 -240 -83 -7 -149 -16 -147 -20 11 -17
106 -59 191 -83 174 -51 575 -105 780 -105 51 0 149 5 218 11 l125 11 46 -38
c297 -252 644 -374 1066 -374 833 0 1682 552 2069 1345 220 452 269 947 133
1355 -59 175 -167 364 -279 488 -31 34 -53 62 -48 62 5 0 46 -33 93 -72 420
-363 543 -996 319 -1646 -183 -530 -568 -965 -1101 -1248 -101 -53 -116 -64
-83 -58 301 46 614 231 869 513 302 334 517 774 593 1216 24 140 23 428 0 548
-41 207 -150 466 -269 639 -80 117 -207 251 -317 334 -101 76 -307 181 -441
223 -240 77 -560 111 -860 91z m160 -580 c47 -6 128 -22 180 -36 91 -24 274
-104 315 -138 20 -16 20 -17 1 -29 -38 -24 -273 -213 -356 -286 -171 -151
-358 -332 -489 -475 -74 -80 -136 -144 -137 -143 -5 4 69 464 112 692 73 400
77 414 94 418 31 9 198 7 280 -3z m-411 -87 c-30 -125 -97 -496 -143 -790
l-42 -272 -79 112 c-141 198 -410 532 -514 636 l-34 35 32 26 c52 44 237 150
340 195 110 49 255 97 356 118 112 24 105 29 84 -60z m1101 -256 c147 -172
223 -371 237 -618 l6 -116 -304 -6 c-356 -7 -627 -32 -964 -91 -44 -8 -81 -13
-82 -12 -5 4 310 330 422 437 142 135 307 279 431 374 49 38 104 82 122 97 31
26 34 27 56 13 13 -9 47 -44 76 -78z m-1893 -189 c153 -175 339 -412 485 -618
l46 -65 -151 3 c-250 6 -806 -24 -1014 -54 l-42 -6 8 28 c17 60 90 231 124
292 79 138 166 251 297 385 74 75 140 137 146 137 6 0 51 -46 101 -102z m2104
-646 c15 -6 15 -14 -2 -94 -51 -245 -177 -494 -361 -713 -85 -101 -194 -208
-207 -203 -4 2 -49 57 -98 123 -144 190 -271 335 -494 557 l-206 207 51 11
c81 18 348 58 491 74 291 34 783 56 826 38z m-1617 -140 c-5 -5 -67 -48 -139
-97 -278 -189 -649 -473 -855 -655 -50 -44 -95 -80 -100 -80 -12 0 -70 142
-92 224 -41 154 -46 335 -15 491 l12 60 95 12 c137 17 333 33 505 42 211 11
601 13 589 3z m447 -319 c129 -135 239 -259 335 -378 86 -107 184 -239 184
-249 0 -3 -54 -41 -121 -85 -208 -138 -408 -225 -632 -275 -117 -27 -317 -48
-317 -34 0 4 15 98 34 210 50 298 130 645 233 1010 l16 58 87 -80 c48 -44 129
-124 181 -177z m-387 200 c-31 -100 -115 -435 -154 -610 -33 -150 -65 -327
-106 -580 -5 -31 -8 -33 -44 -33 -54 0 -221 33 -299 60 -172 58 -339 168 -443
293 l-49 60 28 29 c56 60 342 294 548 448 161 121 521 378 532 380 0 0 -5 -21
-13 -47z m1222 -694 c-90 -106 -161 -178 -169 -170 -5 5 33 49 90 104 54 53
100 97 101 97 2 0 -8 -14 -22 -31z m-2184 -399 c157 -119 352 -196 568 -227
118 -16 120 -17 120 -42 0 -50 -9 -53 -100 -41 -286 39 -555 186 -718 393 -81
102 -90 127 -18 50 37 -40 103 -100 148 -133z m1948 160 c0 -5 -37 -38 -82
-73 -308 -240 -661 -384 -990 -404 l-98 -6 0 41 0 42 61 0 c82 0 250 26 368
56 208 54 458 172 640 302 78 56 101 65 101 42z"/>
<path d="M5048 4540 c-115 -34 -186 -170 -131 -250 21 -32 30 -38 72 -50 57
-16 118 6 173 61 90 90 74 209 -33 239 -39 11 -44 11 -81 0z"/>
<path d="M4646 4059 c-30 -36 -32 -46 -10 -77 33 -47 124 -5 124 57 0 60 -71
72 -114 20z"/>
<path d="M4165 4304 c-70 -36 -105 -89 -105 -158 0 -117 142 -156 244 -67 27
24 56 86 56 121 0 95 -105 151 -195 104z"/>
<path d="M4264 3850 c-53 -21 -70 -89 -30 -115 31 -20 70 -11 96 22 26 34 25
68 -2 87 -25 18 -34 19 -64 6z"/>
<path d="M5445 4124 c-67 -72 17 -144 86 -75 33 34 37 61 11 84 -28 25 -69 21
-97 -9z"/>
<path d="M5447 3946 c-144 -53 -159 -244 -20 -263 52 -7 123 25 154 69 82 114
-6 241 -134 194z"/>
<path d="M3565 3946 c-57 -26 -105 -94 -105 -151 0 -13 12 -37 26 -54 44 -53
133 -41 196 26 55 58 62 120 19 164 -33 33 -83 38 -136 15z"/>
<path d="M3630 3633 c-59 -22 -79 -90 -35 -119 21 -14 30 -14 56 -4 27 12 59
54 59 80 0 14 -38 50 -52 49 -7 0 -20 -3 -28 -6z"/>
<path d="M5148 3200 c-52 -28 -89 -81 -96 -135 -9 -86 34 -135 118 -135 146 0
246 189 143 270 -34 26 -114 26 -165 0z"/>
<path d="M4826 3169 c-30 -35 -33 -61 -10 -83 38 -38 124 3 124 59 0 57 -73
73 -114 24z"/>
<path d="M5401 2914 c-39 -32 -42 -76 -8 -99 51 -33 129 31 108 88 -17 44 -56
48 -100 11z"/>
<path d="M3483 3199 c-77 -23 -131 -113 -112 -184 30 -107 199 -85 251 32 17
40 19 51 9 85 -18 60 -80 88 -148 67z"/>
<path d="M3218 2824 c-28 -14 -58 -60 -58 -87 0 -23 35 -47 69 -47 46 0 91 46
91 94 0 53 -45 71 -102 40z"/>
<path d="M4531 2616 c-47 -17 -111 -73 -127 -112 -32 -76 -9 -160 52 -189 47
-22 93 -19 153 11 133 67 153 241 35 290 -40 17 -67 17 -113 0z"/>
<path d="M4797 2492 c-30 -32 -35 -63 -11 -86 53 -53 159 39 109 94 -26 29
-66 25 -98 -8z"/>
<path d="M3829 2851 c-16 -16 -29 -38 -29 -50 0 -53 74 -69 115 -25 30 32 32
65 7 87 -27 25 -60 21 -93 -12z"/>
<path d="M3762 2519 c-113 -56 -153 -198 -76 -270 22 -21 35 -24 94 -24 60 0
74 4 112 30 78 56 110 153 73 225 -31 60 -124 78 -203 39z"/>
</g>
</svg>
