<svg width="980" height="544" viewBox="0 0 980 544" fill="none" xmlns="http://www.w3.org/2000/svg">
<path d="M503.549 304.045C503.549 304.045 405.869 347.645 326.661 340.615C247.453 333.585 244.168 320.485 244.168 320.485C244.168 320.485 315.195 321.795 322.606 294.725C330.017 267.655 308.109 250.955 274.805 267.045C241.502 283.135 228.88 296.485 196.479 282.835C176.97 274.624 155.949 270.487 134.739 270.685C134.739 270.685 162.446 232.485 192.495 232.485C222.544 232.485 250.575 232.875 257.53 217.275C264.485 201.675 227.846 169.275 196.854 186.795C165.862 204.315 111.573 203.485 79 184.485C145.536 166.975 148.618 162.925 186.128 145.025C223.639 127.125 238.248 130.025 263.664 141.295C289.08 152.565 318.236 138.225 306.983 118.445C295.73 98.6653 253.688 81.5853 219.279 107.545C259.902 53.2353 307.886 65.0753 320.274 70.4453C332.663 75.8153 358.058 72.3153 358.058 72.3153C358.058 72.3153 336.14 60.2053 337.336 23.1953C373.965 44.4553 379.916 44.0553 413.26 38.5653C446.604 33.0753 499.281 0.465268 577.779 0.00526847C656.278 -0.454732 723.33 29.1353 749.507 117.325C775.683 205.515 701.625 339.045 609.389 356.885C517.154 374.725 503.549 304.045 503.549 304.045Z" fill="#FFBB03"/>
<path d="M702.314 72.9253C758.783 134.075 741.335 254.595 653.267 324.705C565.198 394.815 441.9 397.625 378.192 326.815C314.485 256.005 344.362 145.125 432.431 75.0153C520.5 4.9053 645.846 11.7653 702.314 72.9253Z" fill="white"/>
<path d="M685.07 66.6453C743.728 135.645 721.566 249.235 635.535 320.425C549.504 391.615 432.228 393.425 373.559 324.425C314.891 255.425 337.063 141.835 423.094 70.6353C509.125 -0.564682 626.401 -2.31473 685.07 66.6453Z" fill="#D48C55"/>
<path d="M491.262 380.035C441.585 380.035 398.458 361.515 369.677 327.685C340.276 293.155 329.449 246.915 339.09 197.475C348.671 148.415 377.341 102.025 419.829 66.8553C462.318 31.6853 513.616 11.8553 564.255 11.1053C615.3 10.3153 659.552 28.9053 688.952 63.4353C718.353 97.9653 729.19 144.205 719.539 193.645C709.969 242.705 681.288 289.085 638.8 324.255C596.311 359.425 545.013 379.255 494.374 380.005C493.34 380.025 492.296 380.035 491.262 380.035ZM567.357 21.0853H564.417C516.1 21.8353 467.093 40.8053 426.348 74.4953C342.608 143.805 320.67 254.495 377.442 321.235C404.815 353.415 446.289 370.765 494.212 369.985C542.54 369.245 591.536 350.275 632.281 316.575C673.026 282.875 700.449 238.575 709.583 191.735C718.647 145.305 708.569 102.015 681.197 69.8453C654.372 38.3453 614.033 21.0853 567.357 21.0853Z" fill="#6C2815"/>
<path d="M651.695 88.8753C697.651 144.715 678.591 238.165 609.116 297.585C539.64 357.005 446.117 359.915 400.162 304.075C354.206 248.235 373.265 154.785 442.741 95.3653C512.217 35.9453 605.75 33.0353 651.695 88.8753Z" fill="white"/>
<path d="M651.695 90.5753C697.651 143.175 678.591 231.195 609.116 287.175C539.64 343.155 446.117 345.885 400.162 293.285C354.206 240.685 373.265 152.665 442.741 96.6853C512.217 40.7053 605.75 37.9753 651.695 90.5753Z" fill="#F4CE33"/>
<path d="M442.741 108.245C512.197 53.3653 605.75 50.6853 651.695 102.245C667.308 119.765 675.398 143.795 676.584 166.725C677.953 137.385 669.974 109.465 651.695 87.4453C605.75 32.0853 512.197 34.9653 442.741 93.8753C397.657 132.115 373.803 184.575 375.212 231.875C376.56 189.825 400.182 141.885 442.741 108.245Z" fill="white"/>
<path d="M491.16 336.005C452.2 336.005 418.674 322.095 396.36 296.545C376.631 273.965 367.72 244.905 370.589 212.545C374.482 168.655 399.614 125.025 439.527 92.8453C473.997 65.0753 515.299 49.1353 555.871 47.9453C596.879 46.7453 632.291 60.7353 655.528 87.3453C675.256 109.925 684.167 138.985 681.288 171.345C677.405 215.235 652.273 258.865 612.35 291.045C577.881 318.805 536.578 334.755 496.006 335.935C494.384 335.985 492.772 336.005 491.16 336.005ZM560.656 57.8653C522.7 57.8653 481.134 72.2053 445.955 100.555C408.13 131.045 384.346 172.165 380.686 213.385C378.061 243.025 386.131 269.525 404.004 290.015C448.104 340.495 538.677 337.485 605.912 283.295C643.727 252.815 667.521 211.695 671.17 170.475C673.796 140.825 665.726 114.335 647.853 93.8353C626.837 69.7753 595.247 57.8653 560.656 57.8653Z" fill="#6C2815"/>
<path d="M627.405 325.625C592.935 254.625 518.512 192.755 517.762 192.145L517.235 191.705L516.86 191.135C516.383 190.415 468.907 118.555 418.714 75.2253L424.716 68.4453C473.5 110.565 519.536 178.775 524.139 185.675C531.002 191.445 601.897 252.155 635.657 321.745L627.405 325.625Z" fill="#6C2815"/>
<path d="M344.636 203.155L342.608 194.395C418.998 176.845 511.132 180.965 519.922 181.395C528.752 179.395 622.954 158.765 717.724 170.585L716.579 179.515C619.254 167.375 522.365 190.065 521.402 190.295L520.743 190.455H520.064C519.06 190.375 423.225 185.105 344.636 203.155Z" fill="#6C2815"/>
<path d="M366.22 315.995L359.245 310.195C408.363 252.725 508.405 188.915 517.397 183.195C523.744 175.495 590.391 95.9853 672.367 51.0053L676.797 58.8753C592.581 105.085 524.727 188.555 524.048 189.395L523.571 189.985L522.922 190.395C521.848 191.095 416.494 257.165 366.22 315.995Z" fill="#6C2815"/>
<path d="M481.286 378.815C479.988 348.535 485.341 307.215 497.202 255.985C505.465 220.275 514.184 191.985 515.289 188.415C516.566 178.855 533.851 50.4953 551.319 14.5053L559.551 18.3953C542.418 53.6953 524.474 188.605 524.291 189.965L524.24 190.345L524.119 190.715C523.754 191.885 487.379 308.015 490.4 378.435L481.286 378.815Z" fill="#6C2815"/>
<path d="M623.879 194.407C626.953 191.862 627.772 187.83 625.705 185.401C623.64 182.973 619.473 183.068 616.397 185.613C613.322 188.159 612.504 192.191 614.569 194.619C616.635 197.047 620.803 196.953 623.879 194.407Z" fill="white"/>
<path d="M557.731 98.8614C560.807 96.316 561.625 92.2839 559.559 89.8555C557.494 87.427 553.326 87.5218 550.25 90.0672C547.176 92.6126 546.357 96.6446 548.423 99.073C550.489 101.501 554.656 101.407 557.731 98.8614Z" fill="white"/>
<path d="M572.881 77.8263C575.034 76.0442 575.525 73.1247 573.977 71.3055C572.429 69.4863 569.43 69.4562 567.276 71.2383C565.123 73.0204 564.632 75.9398 566.18 77.759C567.727 79.5783 570.727 79.6084 572.881 77.8263Z" fill="white"/>
<path d="M515.969 149.4C519.044 146.855 519.862 142.823 517.797 140.394C515.731 137.966 511.563 138.061 508.487 140.606C505.412 143.151 504.594 147.183 506.66 149.612C508.725 152.04 512.893 151.945 515.969 149.4Z" fill="#789D13"/>
<path d="M572.638 283.002C575.714 280.456 576.532 276.424 574.466 273.996C572.4 271.567 568.232 271.662 565.157 274.208C562.082 276.753 561.263 280.785 563.329 283.213C565.396 285.642 569.563 285.547 572.638 283.002Z" fill="#789D13"/>
<path d="M575.744 215.018C578.836 212.484 579.674 208.45 577.618 206.009C575.561 203.568 571.387 203.644 568.296 206.178C565.205 208.713 564.367 212.746 566.424 215.187C568.481 217.628 572.653 217.552 575.744 215.018Z" fill="#789D13"/>
<path d="M638.48 119.849C641.555 117.304 642.374 113.272 640.308 110.843C638.242 108.415 634.074 108.509 631 111.055C627.924 113.6 627.106 117.632 629.172 120.061C631.237 122.489 635.406 122.394 638.48 119.849Z" fill="#789D13"/>
<path d="M633.198 241.319C636.272 238.774 637.091 234.742 635.024 232.314C632.959 229.885 628.792 229.98 625.716 232.525C622.641 235.071 621.823 239.103 623.888 241.531C625.954 243.96 630.122 243.865 633.198 241.319Z" fill="#789D13"/>
<path d="M557.735 125.783C560.81 123.238 561.629 119.206 559.563 116.777C557.497 114.349 553.329 114.444 550.255 116.989C547.179 119.534 546.361 123.566 548.427 125.995C550.493 128.423 554.66 128.329 557.735 125.783Z" fill="#789D13"/>
<path d="M450.767 171.434C453.842 168.888 454.66 164.856 452.595 162.428C450.529 159.999 446.361 160.094 443.286 162.64C440.211 165.185 439.393 169.217 441.459 171.645C443.524 174.074 447.691 173.979 450.767 171.434Z" fill="#789D13"/>
<path d="M474.412 246.996C477.487 244.451 478.306 240.419 476.24 237.99C474.174 235.562 470.006 235.657 466.931 238.202C463.856 240.747 463.037 244.779 465.103 247.208C467.17 249.636 471.337 249.542 474.412 246.996Z" fill="#789D13"/>
<path d="M619.86 263.584C622.936 261.039 623.754 257.007 621.688 254.578C619.622 252.15 615.454 252.245 612.379 254.79C609.304 257.335 608.485 261.367 610.551 263.796C612.617 266.224 616.785 266.13 619.86 263.584Z" fill="white"/>
<path d="M614.016 226.324C621.09 220.47 623.056 211.297 618.41 205.835C613.764 200.373 604.264 200.691 597.19 206.545C590.118 212.399 588.151 221.572 592.798 227.034C597.444 232.496 606.944 232.178 614.016 226.324Z" fill="#C42222"/>
<path d="M549.449 288.596C557.139 282.231 559.189 272.153 554.028 266.086C548.868 260.019 538.449 260.261 530.759 266.626C523.068 272.992 521.018 283.07 526.179 289.137C531.34 295.204 541.758 294.962 549.449 288.596Z" fill="#C42222"/>
<path d="M474.301 297.026C481.991 290.661 484.042 280.583 478.881 274.516C473.72 268.449 463.302 268.691 455.611 275.056C447.921 281.422 445.871 291.5 451.032 297.567C456.192 303.633 466.611 303.392 474.301 297.026Z" fill="#C42222"/>
<path d="M440.678 225.223C446.829 220.133 448.468 212.072 444.34 207.219C440.213 202.367 431.879 202.56 425.729 207.65C419.579 212.741 417.939 220.802 422.067 225.654C426.195 230.507 434.527 230.314 440.678 225.223Z" fill="#C42222"/>
<path d="M449.793 148.813C455.943 143.722 457.79 135.905 453.917 131.353C450.045 126.8 441.92 127.237 435.769 132.328C429.618 137.418 427.771 145.236 431.644 149.788C435.517 154.34 443.642 153.904 449.793 148.813Z" fill="#C42222"/>
<path d="M517.276 96.2653C521.969 101.785 520.256 110.835 513.433 116.485C506.61 122.135 497.283 122.225 492.59 116.695C487.896 111.165 489.548 102.125 496.422 96.4753C503.295 90.8253 512.582 90.7353 517.276 96.2653Z" fill="#C42222"/>
<path d="M600.014 95.3986C607.395 89.289 609.406 79.665 604.503 73.9027C599.601 68.1404 589.644 68.4219 582.262 74.5315C574.881 80.6411 572.87 90.2651 577.772 96.0274C582.674 101.79 592.632 101.508 600.014 95.3986Z" fill="#C42222"/>
<path d="M640.965 151.474C647.425 146.128 649.105 137.613 644.717 132.456C640.331 127.299 631.538 127.452 625.078 132.798C618.619 138.144 616.939 146.659 621.326 151.817C625.713 156.974 634.506 156.821 640.965 151.474Z" fill="#C42222"/>
<path d="M432.159 281.593C435.234 279.047 436.052 275.015 433.987 272.587C431.921 270.158 427.753 270.253 424.677 272.799C421.602 275.344 420.784 279.376 422.85 281.804C424.915 284.233 429.083 284.138 432.159 281.593Z" fill="white"/>
<path d="M408.823 222.982C411.898 220.437 412.716 216.404 410.651 213.976C408.585 211.547 404.417 211.642 401.342 214.188C398.267 216.733 397.449 220.765 399.515 223.193C401.58 225.622 405.748 225.527 408.823 222.982Z" fill="white"/>
<path d="M523.731 79.1923C526.807 76.6469 527.625 72.6149 525.559 70.1865C523.494 67.758 519.327 67.8527 516.251 70.3981C513.176 72.9435 512.358 76.9756 514.423 79.404C516.489 81.8325 520.657 81.7376 523.731 79.1923Z" fill="white"/>
<path d="M485.493 265.007C488.568 262.462 489.386 258.43 487.321 256.001C485.255 253.573 481.087 253.667 478.011 256.213C474.936 258.758 474.118 262.79 476.183 265.219C478.249 267.647 482.417 267.552 485.493 265.007Z" fill="white"/>
<path d="M535.932 254.576C539.007 252.031 539.826 247.999 537.759 245.57C535.694 243.142 531.527 243.237 528.451 245.782C525.376 248.327 524.558 252.359 526.623 254.788C528.689 257.216 532.857 257.121 535.932 254.576Z" fill="white"/>
<path d="M418.333 173.92C421.408 171.375 422.227 167.343 420.161 164.914C418.095 162.486 413.927 162.581 410.852 165.126C407.776 167.672 406.958 171.704 409.024 174.132C411.09 176.56 415.258 176.466 418.333 173.92Z" fill="white"/>
<path d="M467.844 208.969C470.919 206.423 471.738 202.391 469.672 199.963C467.606 197.534 463.438 197.629 460.363 200.175C457.287 202.72 456.469 206.752 458.535 209.18C460.601 211.609 464.769 211.514 467.844 208.969Z" fill="white"/>
<path d="M616.367 127.903C620.365 124.594 621.723 119.7 619.402 116.971C617.08 114.242 611.958 114.713 607.961 118.021C603.964 121.33 602.604 126.224 604.926 128.953C607.247 131.682 612.369 131.212 616.367 127.903Z" fill="white"/>
<path d="M481.691 99.7487C485.689 96.4401 486.627 91.0518 483.788 87.7138C480.948 84.3757 475.406 84.3519 471.408 87.6606C467.411 90.9692 466.472 96.3573 469.312 99.6954C472.151 103.033 477.694 103.057 481.691 99.7487Z" fill="white"/>
<path d="M518.048 312.972C522.046 309.664 523.404 304.77 521.083 302.041C518.762 299.312 513.639 299.782 509.642 303.091C505.644 306.399 504.286 311.293 506.607 314.022C508.928 316.751 514.051 316.281 518.048 312.972Z" fill="white"/>
<path d="M644.36 213.575C648.358 210.266 649.296 204.878 646.456 201.54C643.617 198.202 638.074 198.178 634.077 201.486C630.079 204.795 629.14 210.183 631.98 213.521C634.82 216.859 640.363 216.883 644.36 213.575Z" fill="white"/>
<path d="M594.039 156.599C597.729 153.546 598.627 148.612 596.046 145.578C593.466 142.545 588.384 142.561 584.695 145.614C581.006 148.667 580.108 153.601 582.688 156.634C585.269 159.668 590.351 159.652 594.039 156.599Z" fill="white"/>
<path d="M411.336 252.704C415.024 249.651 416.132 244.964 413.811 242.235C411.49 239.506 406.617 239.769 402.929 242.822C399.24 245.875 398.132 250.562 400.453 253.291C402.774 256.02 407.646 255.757 411.336 252.704Z" fill="#789D13"/>
<path d="M536.478 231.77C540.167 228.717 541.065 223.783 538.485 220.749C535.904 217.716 530.822 217.732 527.134 220.785C523.445 223.838 522.546 228.772 525.127 231.805C527.708 234.839 532.79 234.823 536.478 231.77Z" fill="white"/>
<path d="M479.262 166.512C482.951 163.459 484.06 158.772 481.738 156.043C479.417 153.314 474.545 153.577 470.857 156.63C467.168 159.683 466.059 164.37 468.381 167.099C470.702 169.828 475.574 169.565 479.262 166.512Z" fill="white"/>
<path d="M7.385 507V502.904L26.969 500.984H28.761V507H7.385ZM19.289 507C19.673 492.664 19.673 477.688 19.673 462.712V456.696C19.673 441.72 19.673 427 19.289 412.28H38.233C37.849 426.744 37.849 441.72 37.849 457.464V461.048C37.849 477.432 37.849 492.28 38.233 507H19.289ZM28.761 507V502.264H77.785L68.569 506.616L74.841 481.656H81.369L81.241 507H28.761ZM28.761 461.048V456.568H60.249V461.048H28.761ZM58.841 473.976L56.921 459.768V457.08L58.841 443H64.601V473.976H58.841ZM7.385 416.504V412.28H28.761V418.168H26.969L7.385 416.504ZM72.153 436.856L66.137 412.536L75.097 417.144H28.761V412.28H78.809L78.937 436.856H72.153ZM91.355 507V503.288L105.179 501.752H116.187L130.395 503.288V507H91.355ZM100.443 507C100.699 500.6 100.827 485.88 100.827 477.048V467.32C100.827 458.744 100.699 453.88 100.443 447.736L90.459 446.84V443.64L115.547 436.6L117.211 437.752L118.107 456.056V477.048C118.107 485.88 118.235 500.6 118.491 507H100.443ZM118.107 466.04L113.883 458.36H117.339C120.923 444.28 130.267 436.472 138.715 436.472C144.475 436.472 149.083 438.648 150.363 445.048C150.235 450.424 147.675 454.392 141.915 454.392C137.563 454.392 134.747 451.832 131.547 447.608L128.603 444.28L133.339 444.92C125.915 448.76 121.435 454.776 118.107 466.04ZM155.867 507V503.288L169.435 501.88H177.371L191.195 503.288V507H155.867ZM164.827 507C165.083 500.6 165.211 485.88 165.211 477.048V467.576C165.211 459.128 165.083 453.496 164.827 447.352L154.715 446.584V443.384L181.339 436.6L182.875 437.752L182.491 457.464V477.048C182.491 485.88 182.619 500.6 183.003 507H164.827ZM173.147 423.16C167.771 423.16 163.419 419.32 163.419 413.816C163.419 408.44 167.771 404.472 173.147 404.472C178.651 404.472 183.003 408.44 183.003 413.816C183.003 419.32 178.651 423.16 173.147 423.16ZM200.108 507V503.288L213.676 501.88H221.868L236.076 503.288V507H200.108ZM209.452 507C209.708 500.984 209.836 485.624 209.836 477.048V411.384L199.724 410.616V407.16L225.58 402.296L227.5 403.448L226.988 423.8V476.28C226.988 485.624 227.116 500.984 227.5 507H209.452ZM218.156 484.472V478.84H218.924L239.404 458.744L260.14 438.52H267.692L218.156 484.472ZM253.484 507L233.644 468.6L245.676 457.592L269.484 502.392L278.444 503.288V507H253.484ZM242.092 442.232V438.52H274.732V442.232L259.884 443.768L257.196 444.152L242.092 442.232ZM293.881 403.448C297.209 403.448 299.641 404.856 301.689 406.648C303.481 409.592 304.377 413.432 304.377 416.888C304.377 428.28 296.313 437.624 283.897 441.848L282.489 438.52C291.321 434.68 296.441 429.304 298.617 420.728L299.129 427.128L290.041 420.984C285.945 418.168 284.921 415.48 284.921 412.152C284.921 407.16 289.017 403.448 293.881 403.448ZM328.946 509.176C319.474 509.176 312.306 507.128 304.882 503.16L305.65 486.52H312.946L316.786 504.44L310.642 503.672V499.064C316.146 502.776 320.754 504.44 327.666 504.44C338.034 504.44 343.538 500.472 343.538 493.304C343.538 487.672 340.85 483.96 330.482 480.888L323.314 478.456C312.178 474.872 305.522 468.6 305.522 458.104C305.522 445.688 315.378 436.472 333.042 436.472C341.234 436.472 347.506 438.392 354.674 442.104L353.906 457.464H347.378L342.386 440.312L347.762 442.104V445.944C342.642 442.616 339.058 441.08 333.298 441.08C324.722 441.08 319.73 445.304 319.73 451.832C319.73 456.952 322.674 460.664 332.402 463.608L339.57 465.912C352.882 470.264 358.514 476.792 358.514 486.776C358.514 500.472 347.634 509.176 328.946 509.176ZM416.757 507V502.904L436.853 500.984H441.845L462.453 502.904V507H416.757ZM430.069 507C430.453 492.664 430.453 477.688 430.453 462.712V456.696C430.453 441.72 430.453 427 430.069 412.28H449.013C448.629 426.744 448.629 441.72 448.629 456.696V462.712C448.629 477.432 448.629 492.28 449.013 507H430.069ZM397.941 438.776L398.709 412.28H480.501L481.141 438.776H474.485L467.573 412.28L476.149 417.144H402.805L411.509 412.28L404.853 438.776H397.941ZM483.605 507V503.288L497.429 501.752H508.437L522.645 503.288V507H483.605ZM492.693 507C492.949 500.6 493.077 485.88 493.077 477.048V467.32C493.077 458.744 492.949 453.88 492.693 447.736L482.709 446.84V443.64L507.797 436.6L509.461 437.752L510.357 456.056V477.048C510.357 485.88 510.485 500.6 510.741 507H492.693ZM510.357 466.04L506.133 458.36H509.589C513.173 444.28 522.517 436.472 530.965 436.472C536.725 436.472 541.333 438.648 542.613 445.048C542.485 450.424 539.925 454.392 534.165 454.392C529.813 454.392 526.997 451.832 523.797 447.608L520.853 444.28L525.589 444.92C518.165 448.76 513.685 454.776 510.357 466.04ZM564.183 509.176C553.559 509.176 545.879 502.776 545.879 492.024C545.879 480.888 552.151 474.36 571.735 468.984C578.391 466.936 587.735 464.632 594.647 462.968V466.296C587.735 468.088 580.311 470.008 575.831 471.672C566.615 475.384 561.879 481.144 561.879 489.72C561.879 497.4 566.103 501.24 572.375 501.24C576.471 501.24 580.951 499.064 589.655 489.72L591.575 496.504H587.095C579.671 504.696 574.551 509.176 564.183 509.176ZM600.023 509.048C591.191 509.048 586.711 503.672 585.687 495.096V458.232C585.687 444.664 582.231 440.696 572.375 440.696C567.895 440.696 563.543 441.72 557.399 444.152L565.463 440.952L564.055 450.808C563.671 458.232 559.959 460.92 555.735 460.92C551.639 460.92 548.823 458.872 547.927 455.032C549.463 443.64 560.087 436.472 578.135 436.472C595.159 436.472 602.583 443.768 602.583 461.432V494.968C602.583 500.856 603.991 502.776 606.807 502.776C608.855 502.776 610.263 501.752 612.567 498.424L614.743 500.216C611.671 506.36 607.191 509.048 600.023 509.048ZM636.882 443.512V438.52H662.098V443.512H636.882ZM646.61 509.176C634.322 509.176 628.05 503.416 628.05 490.232C628.05 485.368 628.178 482.04 628.178 477.048V443.512H617.042V439.544L630.994 438.136L628.69 439.8L634.578 418.04H645.714L645.458 440.568V491.256C645.458 498.424 648.53 501.624 653.906 501.624C657.234 501.624 659.538 500.344 662.994 497.784L665.042 499.832C661.202 505.848 655.314 509.176 646.61 509.176ZM686.757 443.512V438.52H711.973V443.512H686.757ZM696.485 509.176C684.197 509.176 677.925 503.416 677.925 490.232C677.925 485.368 678.053 482.04 678.053 477.048V443.512H666.917V439.544L680.869 438.136L678.565 439.8L684.453 418.04H695.589L695.333 440.568V491.256C695.333 498.424 698.405 501.624 703.781 501.624C707.109 501.624 709.413 500.344 712.869 497.784L714.917 499.832C711.077 505.848 705.189 509.176 696.485 509.176ZM754.805 509.176C734.581 509.176 720.117 495.224 720.117 472.568C720.117 449.784 735.989 436.472 754.805 436.472C773.749 436.472 789.749 449.528 789.749 472.568C789.749 495.48 775.029 509.176 754.805 509.176ZM754.805 504.824C765.301 504.824 771.189 494.2 771.189 472.696C771.189 451.192 765.301 440.696 754.805 440.696C744.565 440.696 738.549 451.192 738.549 472.696C738.549 494.2 744.565 504.824 754.805 504.824ZM799.355 507V503.288L813.179 501.752H824.187L838.395 503.288V507H799.355ZM808.443 507C808.699 500.6 808.827 485.88 808.827 477.048V467.32C808.827 458.744 808.699 453.88 808.443 447.736L798.459 446.84V443.64L823.547 436.6L825.211 437.752L826.107 456.056V477.048C826.107 485.88 826.235 500.6 826.491 507H808.443ZM826.107 466.04L821.883 458.36H825.339C828.923 444.28 838.267 436.472 846.715 436.472C852.475 436.472 857.083 438.648 858.363 445.048C858.235 450.424 855.675 454.392 849.915 454.392C845.563 454.392 842.747 451.832 839.547 447.608L836.603 444.28L841.339 444.92C833.915 448.76 829.435 454.776 826.107 466.04ZM863.867 507V503.288L877.435 501.88H885.371L899.195 503.288V507H863.867ZM872.827 507C873.083 500.6 873.211 485.88 873.211 477.048V467.576C873.211 459.128 873.083 453.496 872.827 447.352L862.715 446.584V443.384L889.339 436.6L890.875 437.752L890.491 457.464V477.048C890.491 485.88 890.619 500.6 891.003 507H872.827ZM881.147 423.16C875.771 423.16 871.419 419.32 871.419 413.816C871.419 408.44 875.771 404.472 881.147 404.472C886.651 404.472 891.003 408.44 891.003 413.816C891.003 419.32 886.651 423.16 881.147 423.16ZM927.308 509.176C916.684 509.176 909.004 502.776 909.004 492.024C909.004 480.888 915.276 474.36 934.86 468.984C941.516 466.936 950.86 464.632 957.772 462.968V466.296C950.86 468.088 943.436 470.008 938.956 471.672C929.74 475.384 925.004 481.144 925.004 489.72C925.004 497.4 929.228 501.24 935.5 501.24C939.596 501.24 944.076 499.064 952.78 489.72L954.7 496.504H950.22C942.796 504.696 937.676 509.176 927.308 509.176ZM963.148 509.048C954.316 509.048 949.836 503.672 948.812 495.096V458.232C948.812 444.664 945.356 440.696 935.5 440.696C931.02 440.696 926.668 441.72 920.524 444.152L928.588 440.952L927.18 450.808C926.796 458.232 923.084 460.92 918.86 460.92C914.764 460.92 911.948 458.872 911.052 455.032C912.588 443.64 923.212 436.472 941.26 436.472C958.284 436.472 965.708 443.768 965.708 461.432V494.968C965.708 500.856 967.116 502.776 969.932 502.776C971.98 502.776 973.388 501.752 975.692 498.424L977.868 500.216C974.796 506.36 970.316 509.048 963.148 509.048Z" fill="black"/>
</svg>
