<?xml version="1.0" encoding="UTF-8"?>
<svg viewBox="0 0 668 381" xmlns="http://www.w3.org/2000/svg">
<path d="m419.46 304.04s-96.35 43.6-174.48 36.57-81.37-20.13-81.37-20.13 70.06 1.31 77.37-25.76-14.3-43.77-47.15-27.68-45.3 29.44-77.26 15.79c-19.243-8.211-39.978-12.348-60.9-12.15 0 0 27.33-38.2 56.97-38.2 29.64 0 57.29 0.39 64.15-15.21s-29.28-48-59.85-30.48c-30.57 17.52-84.12 16.69-116.25-2.31 65.63-17.51 68.67-21.56 105.67-39.46 37-17.9 51.41-15 76.48-3.73s53.83-3.07 42.73-22.85c-11.1-19.78-52.57-36.86-86.51-10.9 40.07-54.31 87.4-42.47 99.62-37.1s37.27 1.87 37.27 1.87-21.62-12.11-20.44-49.12c36.13 21.26 42 20.86 74.89 15.37s84.85-38.1 162.28-38.56c77.43-0.46 143.57 29.13 169.39 117.32 25.82 88.19-47.23 221.72-138.21 239.56s-104.4-52.84-104.4-52.84z" fill="#FFBB03"/>
<path d="m615.52 72.925c55.7 61.15 38.49 181.67-48.38 251.78s-208.49 72.92-271.33 2.11-33.37-181.69 53.5-251.8c86.87-70.11 210.51-63.25 266.21-2.09z" fill="#fff"/>
<path d="m598.51 66.645c57.86 69 36 182.59-48.86 253.78s-200.54 73-258.41 4-36-182.59 48.86-253.79c84.86-71.2 200.54-72.95 258.41-3.99z" fill="#D48C55"/>
<path d="m407.34 380.04c-49 0-91.54-18.52-119.93-52.35-29-34.53-39.68-80.77-30.17-130.21 9.45-49.06 37.73-95.45 79.64-130.62 41.91-35.17 92.51-55 142.46-55.75 50.35-0.79 94 17.8 123 52.33s39.69 80.77 30.17 130.21c-9.44 49.06-37.73 95.44-79.64 130.61s-92.51 55-142.46 55.75c-1.02 0.02-2.05 0.03-3.07 0.03zm75.06-358.95h-2.9c-47.66 0.75-96 19.72-136.19 53.41-82.6 69.31-104.24 180-48.24 246.74 27 32.18 67.91 49.53 115.18 48.75 47.67-0.74 96-19.71 136.19-53.41s67.24-78 76.25-124.84c8.94-46.43-1-89.72-28-121.89-26.46-31.5-66.25-48.76-112.29-48.76z" fill="#6C2815"/>
<path d="m565.59 88.875c45.33 55.84 26.53 149.29-42 208.71s-160.78 62.33-206.11 6.49-26.53-149.29 42-208.71c68.53-59.42 160.79-62.33 206.11-6.49z" fill="#fff"/>
<path d="m565.59 90.575c45.33 52.6 26.53 140.62-42 196.6s-160.78 58.71-206.11 6.11-26.53-140.62 42-196.6c68.53-55.98 160.79-58.71 206.11-6.11z" fill="#F4CE33"/>
<path d="m359.48 108.24c68.51-54.88 160.79-57.56 206.11-6 15.4 17.52 23.38 41.55 24.55 64.48 1.35-29.34-6.52-57.26-24.55-79.28-45.32-55.36-137.6-52.48-206.11 6.43-44.47 38.24-68 90.7-66.61 138 1.33-42.05 24.63-89.99 66.61-123.63z" fill="#fff"/>
<path d="m407.24 336c-38.43 0-71.5-13.91-93.51-39.46-19.46-22.58-28.25-51.64-25.42-84 3.84-43.89 28.63-87.52 68-119.7 34-27.77 74.74-43.71 114.76-44.9 40.45-1.2 75.38 12.79 98.3 39.4 19.46 22.58 28.25 51.64 25.41 84-3.83 43.89-28.62 87.52-68 119.7-34 27.76-74.74 43.71-114.76 44.89-1.6 0.05-3.19 0.07-4.78 0.07zm68.55-278.14c-37.44 0-78.44 14.34-113.14 42.69-37.31 30.49-60.77 71.61-64.38 112.83-2.59 29.64 5.37 56.14 23 76.63 43.5 50.48 132.84 47.47 199.16-6.72 37.3-30.48 60.77-71.6 64.37-112.82 2.59-29.65-5.37-56.14-23-76.64-20.73-24.06-51.89-35.97-86.01-35.97z" fill="#6C2815"/>
<path d="m541.63 325.62c-34-71-107.41-132.87-108.15-133.48l-0.52-0.44-0.37-0.57c-0.47-0.72-47.3-72.58-96.81-115.91l5.92-6.78c48.12 42.12 93.53 110.33 98.07 117.23 6.77 5.77 76.7 66.48 110 136.07l-8.14 3.88z" fill="#6C2815"/>
<path d="m262.71 203.16-2-8.76c75.35-17.55 166.23-13.43 174.9-13 8.71-2 101.63-22.63 195.11-10.81l-1.13 8.93c-96-12.14-191.57 10.55-192.52 10.78l-0.65 0.16h-0.67c-0.99-0.08-95.52-5.35-173.04 12.7z" fill="#6C2815"/>
<path d="m284 316-6.88-5.8c48.45-57.47 147.13-121.28 156-127 6.26-7.7 72-87.21 152.86-132.19l4.37 7.87c-83.07 46.21-150 129.68-150.67 130.52l-0.47 0.59-0.64 0.41c-1.06 0.7-104.98 66.77-154.57 125.6z" fill="#6C2815"/>
<path d="m397.5 378.82c-1.28-30.28 4-71.6 15.7-122.83 8.15-35.71 16.75-64 17.84-67.57 1.26-9.56 18.31-137.92 35.54-173.91l8.12 3.89c-16.9 35.3-34.6 170.21-34.78 171.57l-0.05 0.38-0.12 0.37c-0.36 1.17-36.24 117.3-33.26 187.72l-8.99 0.38z" fill="#6C2815"/>
<path d="m538.15 194.41c3.033-2.545 3.841-6.577 1.803-9.006-2.038-2.428-6.149-2.333-9.182 0.212-3.034 2.546-3.841 6.578-1.803 9.006s6.148 2.334 9.182-0.212z" fill="#fff"/>
<path d="m472.91 98.861c3.033-2.5454 3.841-6.5775 1.803-9.0059-2.038-2.4285-6.149-2.3337-9.182 0.2117-3.034 2.5454-3.841 6.5774-1.803 9.0058 2.037 2.428 6.148 2.334 9.182-0.2116z" fill="#fff"/>
<path d="m487.85 77.826c2.123-1.7821 2.608-4.7016 1.081-6.5208-1.526-1.8192-4.486-1.8493-6.609-0.0672-2.124 1.7821-2.608 4.7015-1.082 6.5207 1.527 1.8193 4.486 1.8494 6.61 0.0673z" fill="#fff"/>
<path d="m431.71 149.4c3.034-2.545 3.841-6.577 1.803-9.006-2.038-2.428-6.149-2.333-9.182 0.212-3.034 2.545-3.841 6.577-1.803 9.006 2.038 2.428 6.149 2.333 9.182-0.212z" fill="#789D13"/>
<path d="m487.61 283c3.033-2.546 3.84-6.578 1.802-9.006-2.037-2.429-6.148-2.334-9.182 0.212-3.033 2.545-3.84 6.577-1.803 9.005 2.038 2.429 6.149 2.334 9.183-0.211z" fill="#789D13"/>
<path d="m490.67 215.02c3.049-2.534 3.876-6.568 1.847-9.009s-6.145-2.365-9.194 0.169c-3.05 2.535-3.877 6.568-1.848 9.009s6.146 2.365 9.195-0.169z" fill="#789D13"/>
<path d="m552.56 119.85c3.034-2.545 3.841-6.577 1.803-9.006-2.037-2.428-6.148-2.334-9.182 0.212-3.033 2.545-3.841 6.577-1.803 9.006 2.038 2.428 6.149 2.333 9.182-0.212z" fill="#789D13"/>
<path d="m547.34 241.32c3.033-2.545 3.841-6.577 1.803-9.005-2.038-2.429-6.149-2.334-9.182 0.211-3.034 2.546-3.841 6.578-1.803 9.006 2.037 2.429 6.148 2.334 9.182-0.212z" fill="#789D13"/>
<path d="m472.91 125.78c3.034-2.545 3.841-6.577 1.803-9.006-2.037-2.428-6.148-2.333-9.182 0.212-3.033 2.545-3.84 6.577-1.803 9.006 2.038 2.428 6.149 2.334 9.182-0.212z" fill="#789D13"/>
<path d="m367.4 171.43c3.034-2.546 3.841-6.578 1.803-9.006-2.038-2.429-6.149-2.334-9.182 0.212-3.034 2.545-3.841 6.577-1.803 9.005 2.038 2.429 6.149 2.334 9.182-0.211z" fill="#789D13"/>
<path d="m390.72 247c3.034-2.545 3.841-6.577 1.803-9.006-2.037-2.428-6.148-2.333-9.182 0.212-3.033 2.545-3.84 6.577-1.803 9.006 2.038 2.428 6.149 2.334 9.182-0.212z" fill="#789D13"/>
<path d="m534.19 263.58c3.033-2.545 3.84-6.577 1.803-9.006-2.038-2.428-6.149-2.333-9.183 0.212-3.033 2.545-3.84 6.577-1.803 9.006 2.038 2.428 6.149 2.334 9.183-0.212z" fill="#fff"/>
<path d="m528.42 226.32c6.976-5.854 8.916-15.027 4.333-20.489s-13.954-5.144-20.93 0.71c-6.977 5.854-8.917 15.027-4.334 20.489s13.954 5.144 20.931-0.71z" fill="#C42222"/>
<path d="m464.74 288.6c7.586-6.365 9.609-16.443 4.518-22.51s-15.367-5.825-22.953 0.54c-7.586 6.366-9.608 16.444-4.517 22.511 5.09 6.067 15.367 5.825 22.952-0.541z" fill="#C42222"/>
<path d="m390.61 297.03c7.586-6.365 9.608-16.443 4.517-22.51-5.09-6.067-15.367-5.825-22.952 0.54-7.586 6.366-9.609 16.444-4.518 22.511 5.091 6.066 15.367 5.825 22.953-0.541z" fill="#C42222"/>
<path d="m357.44 225.22c6.067-5.09 7.685-13.151 3.613-18.004-4.072-4.852-12.291-4.659-18.358 0.431-6.067 5.091-7.684 13.152-3.612 18.004 4.072 4.853 12.291 4.66 18.357-0.431z" fill="#C42222"/>
<path d="m366.44 148.81c6.067-5.091 7.888-12.908 4.069-17.46-3.82-4.553-11.835-4.116-17.902 0.975-6.067 5.09-7.888 12.908-4.068 17.46 3.819 4.552 11.834 4.116 17.901-0.975z" fill="#C42222"/>
<path d="m433 96.265c4.63 5.5197 2.94 14.57-3.79 20.22s-15.93 5.74-20.56 0.21-3-14.57 3.78-20.22c6.78-5.65 15.94-5.74 20.57-0.21z" fill="#C42222"/>
<path d="m514.61 95.399c7.281-6.1096 9.264-15.734 4.429-21.496s-14.657-5.4808-21.938 0.6288c-7.282 6.1096-9.264 15.734-4.429 21.496 4.835 5.7626 14.657 5.4806 21.938-0.6288z" fill="#C42222"/>
<path d="m555.01 151.47c6.371-5.346 8.028-13.861 3.701-19.018-4.328-5.157-13.001-5.004-19.372 0.342-6.372 5.346-8.029 13.861-3.702 19.019 4.328 5.157 13.001 5.004 19.373-0.343z" fill="#C42222"/>
<path d="m349.04 281.59c3.034-2.546 3.841-6.578 1.803-9.006-2.038-2.429-6.149-2.334-9.182 0.212-3.034 2.545-3.841 6.577-1.803 9.005 2.038 2.429 6.149 2.334 9.182-0.211z" fill="#fff"/>
<path d="m326.02 222.98c3.033-2.545 3.841-6.578 1.803-9.006-2.038-2.429-6.149-2.334-9.182 0.212-3.034 2.545-3.841 6.577-1.803 9.005 2.038 2.429 6.149 2.334 9.182-0.211z" fill="#fff"/>
<path d="m439.37 79.192c3.033-2.5454 3.84-6.5774 1.803-9.0058-2.038-2.4285-6.149-2.3338-9.182 0.2116-3.034 2.5454-3.841 6.5775-1.803 9.0059 2.037 2.4285 6.148 2.3336 9.182-0.2117z" fill="#fff"/>
<path d="m401.65 265.01c3.033-2.545 3.841-6.577 1.803-9.006-2.038-2.428-6.149-2.334-9.182 0.212-3.034 2.545-3.841 6.577-1.803 9.006 2.038 2.428 6.149 2.333 9.182-0.212z" fill="#fff"/>
<path d="m451.4 254.58c3.033-2.545 3.841-6.577 1.803-9.006-2.038-2.428-6.149-2.333-9.182 0.212-3.034 2.545-3.841 6.577-1.803 9.006 2.038 2.428 6.148 2.333 9.182-0.212z" fill="#fff"/>
<path d="m335.4 173.92c3.034-2.545 3.841-6.577 1.803-9.006-2.037-2.428-6.148-2.333-9.182 0.212-3.033 2.546-3.84 6.578-1.803 9.006 2.038 2.428 6.149 2.334 9.182-0.212z" fill="#fff"/>
<path d="m384.24 208.97c3.034-2.546 3.841-6.578 1.803-9.006-2.037-2.429-6.148-2.334-9.182 0.212-3.033 2.545-3.84 6.577-1.803 9.005 2.038 2.429 6.149 2.334 9.182-0.211z" fill="#fff"/>
<path d="m530.74 127.9c3.943-3.309 5.283-8.203 2.994-10.932-2.29-2.729-7.343-2.258-11.286 1.05-3.943 3.309-5.283 8.203-2.994 10.932 2.29 2.729 7.343 2.259 11.286-1.05z" fill="#fff"/>
<path d="m397.9 99.749c3.943-3.3086 4.869-8.6969 2.068-12.035-2.801-3.3381-8.268-3.3619-12.211-0.0532-3.943 3.3086-4.869 8.6967-2.068 12.035 2.801 3.3376 8.268 3.3616 12.211 0.0533z" fill="#fff"/>
<path d="m433.76 312.97c3.944-3.308 5.284-8.202 2.994-10.931s-7.342-2.259-11.285 1.05c-3.944 3.308-5.284 8.202-2.994 10.931s7.342 2.259 11.285-1.05z" fill="#fff"/>
<path d="m558.36 213.58c3.943-3.309 4.869-8.697 2.068-12.035s-8.268-3.362-12.211-0.054c-3.943 3.309-4.869 8.697-2.068 12.035s8.268 3.362 12.211 0.054z" fill="#fff"/>
<path d="m508.72 156.6c3.638-3.053 4.524-7.987 1.979-11.021-2.546-3.033-7.559-3.017-11.197 0.036s-4.525 7.987-1.979 11.02c2.545 3.034 7.558 3.018 11.197-0.035z" fill="#fff"/>
<path d="m328.5 252.7c3.638-3.053 4.732-7.74 2.442-10.469s-7.096-2.466-10.734 0.587-4.732 7.74-2.442 10.469 7.096 2.466 10.734-0.587z" fill="#789D13"/>
<path d="m451.94 231.77c3.638-3.053 4.524-7.987 1.979-11.021-2.545-3.033-7.558-3.017-11.197 0.036-3.638 3.053-4.524 7.987-1.979 11.02 2.545 3.034 7.558 3.018 11.197-0.035z" fill="#fff"/>
<path d="m395.5 166.51c3.638-3.053 4.732-7.74 2.442-10.469s-7.096-2.466-10.734 0.587-4.732 7.74-2.442 10.469 7.095 2.466 10.734-0.587z" fill="#fff"/>
</svg>
